<svg xmlns="http://www.w3.org/2000/svg" width="80" height="80" transform="translate(0, 0)"><rect x="0" y="0" width="80" height="80" fill="transparent"/><g transform="translate(0, 0)"><svg width="80" height="80" style="background: white;"><rect x="0" y="0" width="80" height="80" fill="transparent"/><g transform="translate(0,0)"><rect x="8" y="8" width="17.92" height="64" stroke="transparent" fill="none"/><rect x="32.32" y="8" width="39.68" height="17.92" stroke="transparent" fill="none"/><rect x="32.32" y="32.32" width="39.68" height="16.639999999999993" stroke="transparent" fill="none"/><rect x="32.32" y="55.36" width="39.68" height="16.64" stroke="transparent" fill="none"/></g><g transform="translate(0,0)"><g transform="translate(8,8)"><path d="M8.96,0L8.96,64" fill="transparent" stroke="#000000" stroke-width="3"/><path d="M0,0L17.92,0" fill="transparent" stroke="#000000" stroke-width="3"/></g><g transform="translate(32.32,8)"><path d="M0,0L0,17.92" fill="transparent" stroke="#000000" stroke-width="3"/><path d="M0,7.68C0,7.68,2.897,4.851,4.96,3.84C7.597,2.548,11.553,1.921,14.88,1.28C18.167,0.646,21.151,0.234,24.8,0C29.251,-0.286,39.68,0,39.68,0" fill="transparent" stroke="#000000" stroke-width="3"/></g><g transform="translate(32.32,32.32)"><path d="M0,7.131C0,7.131,37.079,9.732,39.68,7.131C40.317,6.495,40.045,5.466,39.68,4.754C39.203,3.823,37.519,2.98,36.373,2.377C35.309,1.817,34.375,1.539,33.067,1.189C31.257,0.704,28.891,0.217,26.453,0C23.491,-0.264,19.495,-0.264,16.533,0C14.095,0.217,12.1,0.605,9.92,1.189C7.69,1.785,5.031,2.426,3.307,3.566C1.872,4.514,0.454,5.975,0,7.131C-0.317,7.94,-0.317,8.7,0,9.509C0.454,10.665,1.872,12.126,3.307,13.074C5.031,14.214,7.69,14.855,9.92,15.451C12.1,16.035,14.095,16.423,16.533,16.64C19.495,16.904,23.491,16.904,26.453,16.64C28.891,16.423,30.886,16.035,33.067,15.451C35.296,14.855,39.68,13.074,39.68,13.074" fill="transparent" stroke="#000000" stroke-width="3"/></g><g transform="translate(32.32,55.36)"><path d="M0,7.131C0,7.131,37.079,9.732,39.68,7.131C40.317,6.495,40.045,5.466,39.68,4.754C39.203,3.823,37.519,2.98,36.373,2.377C35.309,1.817,34.375,1.539,33.067,1.189C31.257,0.704,28.891,0.217,26.453,0C23.491,-0.264,19.495,-0.264,16.533,0C14.095,0.217,12.1,0.605,9.92,1.189C7.69,1.785,5.031,2.426,3.307,3.566C1.872,4.514,0.454,5.975,0,7.131C-0.317,7.94,-0.317,8.7,0,9.509C0.454,10.665,1.872,12.126,3.307,13.074C5.031,14.214,7.69,14.855,9.92,15.451C12.1,16.035,14.095,16.423,16.533,16.64C19.495,16.904,23.491,16.904,26.453,16.64C28.891,16.423,30.886,16.035,33.067,15.451C35.296,14.855,39.68,13.074,39.68,13.074" fill="transparent" stroke="#000000" stroke-width="3"/></g></g></svg></g></svg>